<svg width="640" height="240" viewBox="0 0 640 240" xmlns="http://www.w3.org/2000/svg">
  <defs>
    <linearGradient id="GreenBlueGradient" x1="0" y1="0" x2="1" y2="1">
      <stop offset="0%" stop-color="#8bc53f" />
      <stop offset="100%" stop-color="#0072ce" />
    </linearGradient>
  </defs>
  <rect width="640" height="240" fill="none" />
  <g transform="translate(40, 36)">
    <path d="M123 12C97.432 12 76 33.432 76 59C76 81.852 94.018 100.634 116 103.326V145H104C94.058 145 86 153.058 86 163V183C86 193.942 94.058 202 104 202H128C137.942 202 146 193.942 146 183V145H160V103.326C182.018 100.634 200 81.852 200 59C200 33.432 178.568 12 153 12H123Z" fill="#8bc53f" />
    <path d="M104 103V145H146V103.326C160 101.351 170 89.831 170 75C170 55.1929 154.807 40 135 40C115.193 40 100 55.1929 100 75C100 86.523 107.578 96.302 120 100V103H104Z" fill="#ffffff" opacity="0.9" />
    <path d="M68 172.5c0 6.903-5.597 12.5-12.5 12.5S43 179.403 43 172.5 48.597 160 55.5 160 68 165.597 68 172.5Z" fill="#0072ce" />
    <path d="M230 116c0 31.046-24.954 56-56 56s-56-24.954-56-56 24.954-56 56-56 56 24.954 56 56Z" fill="#0072ce" opacity="0.2" />
    <circle cx="116" cy="75" r="20" fill="#ffffff" />
    <circle cx="104" cy="163" r="20" fill="#ffffff" />
    <path d="M192 107a11 11 0 1 0 0-22 11 11 0 0 0 0 22Z" fill="#ffffff" />
  </g>
  <g transform="translate(240, 60)">
    <text x="0" y="70" fill="#005cbf" font-family="Arial, Helvetica, sans-serif" font-size="96" font-weight="700">SASE</text>
    <text x="0" y="116" fill="#005cbf" font-family="Arial, Helvetica, sans-serif" font-size="24">Society of Asian Scientists &amp; Engineers</text>
  </g>
</svg>